<svg width="103" height="103" viewBox="0 0 103 103" fill="none" xmlns="http://www.w3.org/2000/svg">
<rect x="9.5" y="0.0737305" width="84" height="84" rx="20" fill="#EFF6FF"/>
<g filter="url(#filter0_dd_3_321)">
<rect x="9.5" y="0.0737305" width="84" height="84" rx="20" fill="#00618A" shape-rendering="crispEdges"/>
<path d="M18.8647 56.4441H21.0664V47.334L24.4748 55.2759C24.8769 56.2372 25.4274 56.5772 26.507 56.5772C27.5867 56.5772 28.1159 56.2372 28.5182 55.2759L31.9265 47.334V56.4441H34.1283V47.3489C34.1283 46.4616 33.7894 46.0326 33.0909 45.8109C31.4185 45.2637 30.2965 45.7369 29.7883 46.9201L26.4435 54.7581L23.2045 46.9201C22.7177 45.7369 21.5745 45.2637 19.9021 45.8109C19.2034 46.0326 18.8647 46.4616 18.8647 47.3489V56.4441Z" fill="white"/>
<path d="M35.9583 49.0286H38.1592V54.0476C38.1387 54.3203 38.2427 54.9602 39.4488 54.9801C40.0641 54.9902 44.1978 54.9801 44.2363 54.9801V49.0042H46.4425C46.4526 49.0042 46.4402 57.1537 46.4404 57.1884C46.4526 59.1983 44.0604 59.6348 42.9579 59.6686H36.0061V58.1166C36.0183 58.1166 42.9528 58.118 42.9702 58.1162C44.3872 57.9594 44.2199 57.2214 44.2197 56.973V56.3679H39.5402C37.363 56.3469 35.9766 55.3513 35.9595 54.2059C35.9579 54.0997 36.0064 49.0787 35.9583 49.0286Z" fill="white"/>
<path d="M48.1399 56.4428H54.4695C55.2105 56.4428 55.9304 56.2802 56.502 55.9991C57.4545 55.5408 57.9203 54.9198 57.9203 54.1061V52.4203C57.9203 51.7547 57.3911 51.1335 56.3537 50.7196C55.8032 50.4976 55.1258 50.3794 54.4695 50.3794H51.8021C50.9131 50.3794 50.4897 50.0984 50.3839 49.4773C50.3626 49.4033 50.3626 49.344 50.3626 49.2702V48.2203C50.3626 48.1611 50.3626 48.1018 50.3839 48.0279C50.4897 47.5548 50.7227 47.4215 51.5058 47.3476C51.5694 47.3476 51.6539 47.3327 51.7175 47.3327H58.005V45.7949H51.8233C50.9342 45.7949 50.4684 45.854 50.0451 45.987C48.7326 46.416 48.161 47.0963 48.161 48.2795V49.6252C48.161 50.6605 49.2831 51.5478 51.167 51.7547C51.379 51.7695 51.5905 51.7842 51.8021 51.7842H54.0884C54.1733 51.7842 54.258 51.7842 54.3214 51.7991C55.02 51.8584 55.3163 51.9913 55.5282 52.2576C55.6551 52.3905 55.6974 52.5238 55.6974 52.6717V54.0174C55.6974 54.1802 55.5916 54.3873 55.3801 54.5646C55.1894 54.7421 54.8719 54.8605 54.4485 54.8901C54.3638 54.8901 54.3003 54.9049 54.2156 54.9049H48.1399V56.4428Z" fill="#E48E00"/>
<path d="M71.6531 53.7661C71.6531 55.3484 72.775 56.2359 75.0403 56.4134C75.2518 56.4281 75.4637 56.4428 75.6753 56.4428H81.4124V54.9049H75.6329C74.3416 54.9049 73.8547 54.5646 73.8547 53.7513V45.7949H71.6531V53.7661Z" fill="#E48E00"/>
<path d="M59.324 53.8472V48.364C59.324 46.971 60.2575 46.1261 62.1029 45.8593C62.2939 45.8299 62.5061 45.8149 62.6969 45.8149H66.876C67.0881 45.8149 67.2792 45.8299 67.4913 45.8593C69.3369 46.1261 70.2702 46.971 70.2702 48.364V53.8472C70.2702 54.9773 69.8738 55.5822 68.9602 55.9764L71.129 58.0276H68.5726L66.8181 56.368L65.0517 56.4853H62.6969C62.2939 56.4853 61.8697 56.4258 61.4029 56.2925C60.0029 55.8925 59.324 55.1218 59.324 53.8472ZM61.7003 53.7139C61.7003 53.7881 61.7214 53.8621 61.7427 53.951C61.8699 54.5882 62.4427 54.9439 63.3124 54.9439H65.3126L63.4753 53.2058H66.0317L67.6341 54.7217C67.9293 54.5568 68.1238 54.3046 68.1917 53.9806C68.2127 53.9066 68.2127 53.8324 68.2127 53.7584V48.4974C68.2127 48.4382 68.2127 48.364 68.1917 48.2898C68.0643 47.6971 67.4915 47.3563 66.643 47.3563H63.3124C62.3367 47.3563 61.7003 47.8009 61.7003 48.4974V53.7139Z" fill="#E48E00"/>
<path d="M82.1718 45.354C80.8184 45.3156 79.7846 45.4474 78.9008 45.838C78.6497 45.949 78.2492 45.9519 78.2082 46.2817C78.3462 46.4333 78.3677 46.6597 78.4774 46.8462C78.6884 47.204 79.0447 47.6835 79.3625 47.935C79.7099 48.2097 80.0678 48.5036 80.4402 48.7414C81.1025 49.1647 81.8419 49.4063 82.4797 49.8303C82.8555 50.0802 83.2289 50.3949 83.5956 50.677C83.7768 50.8164 83.8987 51.0332 84.1343 51.1205C84.1343 51.1072 84.1343 51.0938 84.1343 51.0803C84.0105 50.9152 83.9786 50.6881 83.8649 50.5156C83.6983 50.341 83.5315 50.1662 83.3647 49.9914C82.8756 49.3111 82.2546 48.7136 81.5945 48.2172C81.0682 47.8213 79.8901 47.2865 79.6704 46.6446C79.6576 46.6311 79.6449 46.6177 79.6319 46.6042C80.0051 46.5602 80.4421 46.4186 80.7865 46.322C81.3651 46.1594 81.8822 46.2014 82.4797 46.0397C82.749 45.9591 83.0184 45.8782 83.2879 45.7977C83.2879 45.7438 83.2879 45.6903 83.2879 45.6364C82.9858 45.3116 82.7705 44.8819 82.4411 44.588C81.5795 43.8191 80.6389 43.0509 79.6704 42.4104C79.1333 42.0551 78.4695 41.8242 77.9003 41.5232C77.7088 41.422 77.3724 41.3693 77.2459 41.2006C76.9469 40.8011 76.784 40.2948 76.5535 39.8295C76.0703 38.8548 75.5959 37.7902 75.168 36.7648C74.8761 36.0655 74.6854 35.3759 74.3214 34.7485C72.5741 31.7382 70.6932 29.9212 67.7796 28.1352C67.1596 27.7554 66.4132 27.6054 65.6244 27.4094C65.2012 27.3826 64.7778 27.3556 64.3545 27.3287C64.0961 27.2156 63.8273 26.8843 63.5849 26.7238C62.6197 26.0849 60.1439 24.6951 59.4289 26.5222C58.9775 27.6756 60.1036 28.801 60.5063 29.3854C60.789 29.7954 61.1509 30.255 61.3529 30.7161C61.4857 31.0191 61.5087 31.3229 61.6224 31.6436C61.9022 32.4334 62.1454 33.2927 62.5074 34.0227C62.6903 34.392 62.8919 34.7811 63.1232 35.1115C63.265 35.3141 63.5079 35.4034 63.5463 35.7164C63.3087 36.0648 63.2951 36.6057 63.1616 37.0471C62.5602 39.0343 62.787 41.5042 63.6619 42.9749C63.9303 43.4264 64.5626 44.3947 65.432 44.0234C66.1925 43.6987 66.0226 42.6929 66.2402 41.8055C66.2894 41.6042 66.2592 41.4563 66.3556 41.3216C66.3556 41.3349 66.3556 41.3484 66.3556 41.3619C66.5865 41.8458 66.8174 42.3297 67.0484 42.8134C67.561 43.6786 68.4708 44.5828 69.2418 45.1929C69.6416 45.5092 69.9564 46.0563 70.4733 46.2413C70.4733 46.2278 70.4733 46.2145 70.4733 46.2009C70.4602 46.2009 70.4475 46.2009 70.4347 46.2009C70.3346 46.0372 70.1779 45.9695 70.05 45.838C69.7487 45.5286 69.4139 45.144 69.1648 44.7896C68.4636 43.792 67.8438 42.7001 67.2793 41.5635C67.0096 41.0209 66.7752 40.4221 66.5479 39.8699C66.4603 39.6569 66.4613 39.3349 66.2787 39.2246C66.0298 39.6293 65.6631 39.9565 65.4706 40.4344C65.1627 41.1983 65.1229 42.1298 65.0089 43.0958C64.9413 43.1212 64.9713 43.1037 64.9317 43.1361C64.3958 43.0006 64.2074 42.4225 64.0083 41.9265C63.5045 40.6721 63.4109 38.6523 63.8542 37.2085C63.9689 36.835 64.4873 35.6583 64.2775 35.3132C64.1774 34.9688 63.8468 34.7697 63.6619 34.5066C63.433 34.1813 63.2044 33.7531 63.046 33.3775C62.6337 32.3994 62.4412 31.3015 62.0071 30.3129C61.7996 29.8403 61.4487 29.362 61.1605 28.9419C60.8415 28.4764 60.4842 28.1336 60.237 27.5707C60.149 27.3707 60.0295 27.0505 60.16 26.8449C60.2015 26.7061 60.2599 26.6482 60.3909 26.6029C60.6141 26.4226 61.2358 26.6629 61.4683 26.7642C62.0854 27.0328 62.6005 27.2885 63.1232 27.6514C63.3742 27.8257 63.6279 28.1629 63.9312 28.2563C64.0466 28.2563 64.1621 28.2563 64.2775 28.2563C64.8193 28.3868 65.4262 28.2968 65.9323 28.4578C66.8268 28.7428 67.6285 29.1859 68.3566 29.6677C70.5747 31.1352 72.3883 33.2243 73.6288 35.7164C73.8284 36.1176 73.9148 36.5006 74.0905 36.9262C74.4452 37.7844 74.892 38.6676 75.2448 39.5069C75.597 40.3442 75.9402 41.1893 76.4379 41.8862C76.6997 42.2525 77.7103 42.449 78.1696 42.6523C78.4916 42.7949 79.0191 42.9435 79.3241 43.1361C79.9067 43.5044 80.4711 43.9427 81.0175 44.346C81.2906 44.5476 82.13 44.9897 82.1718 45.354Z" fill="white"/>
</g>
<defs>
<filter id="filter0_dd_3_321" x="0.37904" y="0.0737305" width="102.242" height="102.242" filterUnits="userSpaceOnUse" color-interpolation-filters="sRGB">
<feFlood flood-opacity="0" result="BackgroundImageFix"/>
<feColorMatrix in="SourceAlpha" type="matrix" values="0 0 0 0 0 0 0 0 0 0 0 0 0 0 0 0 0 0 127 0" result="hardAlpha"/>
<feOffset dy="9.12096"/>
<feGaussianBlur stdDeviation="4.56048"/>
<feComposite in2="hardAlpha" operator="out"/>
<feColorMatrix type="matrix" values="0 0 0 0 0 0 0 0 0 0.380392 0 0 0 0 0.541176 0 0 0 0.2 0"/>
<feBlend mode="normal" in2="BackgroundImageFix" result="effect1_dropShadow_3_321"/>
<feColorMatrix in="SourceAlpha" type="matrix" values="0 0 0 0 0 0 0 0 0 0 0 0 0 0 0 0 0 0 127 0" result="hardAlpha"/>
<feOffset dy="9.12096"/>
<feGaussianBlur stdDeviation="4.56048"/>
<feComposite in2="hardAlpha" operator="out"/>
<feColorMatrix type="matrix" values="0 0 0 0 0 0 0 0 0 0.380392 0 0 0 0 0.541176 0 0 0 0.2 0"/>
<feBlend mode="normal" in2="effect1_dropShadow_3_321" result="effect2_dropShadow_3_321"/>
<feBlend mode="normal" in="SourceGraphic" in2="effect2_dropShadow_3_321" result="shape"/>
</filter>
</defs>
</svg>
